<svg width="11" height="11" viewBox="0 0 11 11" fill="none" xmlns="http://www.w3.org/2000/svg">
<path d="M5.5 0C4.4122 0 3.34884 0.322569 2.44437 0.926917C1.5399 1.53126 0.834947 2.39025 0.418665 3.39524C0.00238306 4.40023 -0.106535 5.5061 0.105683 6.573C0.317902 7.63989 0.841726 8.6199 1.61091 9.38909C2.3801 10.1583 3.36011 10.6821 4.427 10.8943C5.4939 11.1065 6.59977 10.9976 7.60476 10.5813C8.60975 10.1651 9.46874 9.4601 10.0731 8.55563C10.6774 7.65116 11 6.5878 11 5.5C10.9985 4.04178 10.4185 2.64373 9.38739 1.61261C8.35627 0.581497 6.95822 0.0015399 5.5 0ZM10.1538 5.5C10.1549 6.58812 9.77279 7.64186 9.07447 8.47634L2.52366 1.925C3.20322 1.35965 4.02975 0.999541 4.90652 0.88681C5.78328 0.774079 6.67402 0.91339 7.4745 1.28844C8.27498 1.66349 8.95209 2.25877 9.42658 3.00461C9.90108 3.75046 10.1533 4.61601 10.1538 5.5ZM0.846156 5.5C0.845073 4.41188 1.22722 3.35813 1.92553 2.52365L8.47635 9.075C7.79678 9.64035 6.97025 10.0005 6.09349 10.1132C5.21672 10.2259 4.32598 10.0866 3.5255 9.71156C2.72502 9.3365 2.04792 8.74123 1.57342 7.99539C1.09892 7.24954 0.846661 6.38398 0.846156 5.5Z" fill="white"/>
</svg>
