<svg width="19" height="15" viewBox="0 0 19 15" fill="none" xmlns="http://www.w3.org/2000/svg">
<path d="M10.0037 10.4405C10.9835 9.8303 11.7379 8.91757 12.1527 7.84043C12.5675 6.76329 12.6203 5.58035 12.3029 4.47057C11.9856 3.36079 11.3154 2.38456 10.3938 1.68957C9.47226 0.994584 8.34941 0.618652 7.19515 0.618652C6.04089 0.618652 4.91803 0.994584 3.99645 1.68957C3.07487 2.38456 2.40472 3.36079 2.08737 4.47057C1.77003 5.58035 1.82276 6.76329 2.23759 7.84043C2.65243 8.91757 3.40679 9.8303 4.38655 10.4405C2.77327 10.9687 1.32171 11.9554 0.15452 13.3444C0.0998329 13.407 0.0581616 13.4798 0.0319428 13.5586C0.00572399 13.6374 -0.0045161 13.7207 0.0018212 13.8035C0.0081585 13.8864 0.030946 13.9671 0.0688515 14.041C0.106757 14.115 0.159019 14.1806 0.222584 14.2341C0.286148 14.2876 0.359738 14.3278 0.439051 14.3526C0.518365 14.3773 0.60181 14.3859 0.684508 14.378C0.767206 14.3701 0.847498 14.3458 0.920688 14.3065C0.993878 14.2672 1.0585 14.2137 1.11077 14.1491C2.67952 12.2772 4.84046 11.2468 7.19124 11.2468C9.54202 11.2468 11.703 12.2772 13.2748 14.1491C13.3815 14.2761 13.5343 14.3556 13.6996 14.3699C13.8649 14.3843 14.0291 14.3324 14.1561 14.2257C14.2831 14.119 14.3625 13.9662 14.3769 13.8009C14.3912 13.6356 14.3394 13.4714 14.2326 13.3444C13.0647 11.9554 11.6131 10.9687 10.0037 10.4405ZM3.12874 5.93428C3.12874 5.13079 3.367 4.34535 3.81339 3.67727C4.25979 3.0092 4.89426 2.4885 5.63659 2.18102C6.37891 1.87354 7.19575 1.79308 7.98379 1.94984C8.77184 2.10659 9.49571 2.4935 10.0639 3.06166C10.632 3.62981 11.0189 4.35367 11.1757 5.14172C11.3324 5.92977 11.252 6.7466 10.9445 7.48893C10.637 8.23125 10.1163 8.86573 9.44824 9.31212C8.78017 9.75852 7.99473 9.99678 7.19124 9.99678C6.11418 9.99554 5.08159 9.56713 4.31999 8.80553C3.55839 8.04393 3.12998 7.01134 3.12874 5.93428ZM18.4608 9.29912L18.0967 9.08896C18.1394 8.86284 18.1394 8.63072 18.0967 8.40459L18.4608 8.19443C18.5319 8.15339 18.5942 8.09875 18.6442 8.03363C18.6942 7.96851 18.7308 7.89418 18.7521 7.81489C18.7733 7.7356 18.7788 7.65289 18.7681 7.5715C18.7573 7.49011 18.7307 7.41163 18.6897 7.34053C18.6486 7.26943 18.594 7.20711 18.5289 7.15713C18.4638 7.10715 18.3894 7.07048 18.3101 7.04922C18.2308 7.02797 18.1481 7.02254 18.0667 7.03324C17.9854 7.04395 17.9069 7.07058 17.8358 7.11162L17.4709 7.32256C17.2963 7.17276 17.0956 7.05649 16.8787 6.97959V6.55928C16.8787 6.39352 16.8129 6.23455 16.6957 6.11734C16.5785 6.00012 16.4195 5.93428 16.2537 5.93428C16.088 5.93428 15.929 6.00012 15.8118 6.11734C15.6946 6.23455 15.6287 6.39352 15.6287 6.55928V6.97959C15.4119 7.05649 15.2112 7.17276 15.0366 7.32256L14.6717 7.11162C14.6006 7.07058 14.5221 7.04395 14.4407 7.03324C14.3593 7.02254 14.2766 7.02797 14.1973 7.04922C14.1181 7.07048 14.0437 7.10715 13.9786 7.15713C13.9135 7.20711 13.8588 7.26943 13.8178 7.34053C13.7768 7.41163 13.7501 7.49011 13.7394 7.5715C13.7287 7.65289 13.7341 7.7356 13.7554 7.81489C13.7767 7.89418 13.8133 7.96851 13.8633 8.03363C13.9133 8.09875 13.9756 8.15339 14.0467 8.19443L14.4108 8.40459C14.3681 8.63072 14.3681 8.86284 14.4108 9.08896L14.0467 9.29912C13.9756 9.34016 13.9133 9.3948 13.8633 9.45992C13.8133 9.52504 13.7767 9.59937 13.7554 9.67867C13.7341 9.75796 13.7287 9.84066 13.7394 9.92205C13.7501 10.0034 13.7768 10.0819 13.8178 10.153C13.8588 10.2241 13.9135 10.2864 13.9786 10.3364C14.0437 10.3864 14.1181 10.4231 14.1973 10.4443C14.2766 10.4656 14.3593 10.471 14.4407 10.4603C14.5221 10.4496 14.6006 10.423 14.6717 10.3819L15.0366 10.171C15.2112 10.3208 15.4119 10.4371 15.6287 10.514V10.9343C15.6287 11.1 15.6946 11.259 15.8118 11.3762C15.929 11.4934 16.088 11.5593 16.2537 11.5593C16.4195 11.5593 16.5785 11.4934 16.6957 11.3762C16.8129 11.259 16.8787 11.1 16.8787 10.9343V10.514C17.0956 10.4371 17.2963 10.3208 17.4709 10.171L17.8358 10.3819C17.9307 10.437 18.0385 10.4659 18.1483 10.4655C18.2859 10.4656 18.4197 10.4202 18.5289 10.3364C18.6381 10.2527 18.7166 10.1352 18.7522 10.0023C18.7878 9.86933 18.7786 9.72835 18.7259 9.60121C18.6732 9.47407 18.58 9.36788 18.4608 9.29912ZM15.6287 8.74678C15.6287 8.62316 15.6654 8.50233 15.7341 8.39955C15.8027 8.29676 15.9004 8.21666 16.0146 8.16935C16.1288 8.12205 16.2544 8.10967 16.3757 8.13379C16.4969 8.1579 16.6083 8.21743 16.6957 8.30483C16.7831 8.39224 16.8426 8.50361 16.8667 8.62484C16.8908 8.74608 16.8785 8.87175 16.8312 8.98595C16.7839 9.10016 16.7038 9.19777 16.601 9.26645C16.4982 9.33512 16.3774 9.37178 16.2537 9.37178C16.088 9.37178 15.929 9.30593 15.8118 9.18872C15.6946 9.07151 15.6287 8.91254 15.6287 8.74678Z" fill="black"/>
</svg>
