<svg width="22" height="22" viewBox="0 0 22 22" fill="none" xmlns="http://www.w3.org/2000/svg">
<path d="M21.3142 19.8109C21.4129 19.9096 21.4912 20.0268 21.5446 20.1558C21.5981 20.2848 21.6256 20.423 21.6256 20.5626C21.6256 20.7022 21.5981 20.8405 21.5446 20.9694C21.4912 21.0984 21.4129 21.2156 21.3142 21.3143C21.2155 21.413 21.0983 21.4913 20.9693 21.5448C20.8403 21.5982 20.7021 21.6257 20.5625 21.6257C20.4229 21.6257 20.2846 21.5982 20.1557 21.5448C20.0267 21.4913 19.9095 21.413 19.8108 21.3143L11 12.5022L2.1892 21.3143C1.98983 21.5137 1.71943 21.6257 1.43748 21.6257C1.15553 21.6257 0.88513 21.5137 0.685762 21.3143C0.486393 21.115 0.37439 20.8446 0.37439 20.5626C0.37439 20.2807 0.486393 20.0103 0.685762 19.8109L9.49787 11.0001L0.685762 2.18932C0.486393 1.98995 0.37439 1.71955 0.37439 1.4376C0.37439 1.15565 0.486393 0.885252 0.685762 0.685884C0.88513 0.486516 1.15553 0.374512 1.43748 0.374512C1.71943 0.374512 1.98983 0.486516 2.1892 0.685884L11 9.49799L19.8108 0.685884C20.0101 0.486516 20.2805 0.374512 20.5625 0.374512C20.8444 0.374512 21.1148 0.486516 21.3142 0.685884C21.5136 0.885252 21.6256 1.15565 21.6256 1.4376C21.6256 1.71955 21.5136 1.98995 21.3142 2.18932L12.5021 11.0001L21.3142 19.8109Z" fill="white"/>
</svg>
