<svg width="34" height="34" viewBox="0 0 34 34" fill="none" xmlns="http://www.w3.org/2000/svg">
<path d="M31.875 13.8125H30.4406L26.7511 5.51172C26.5841 5.13616 26.3118 4.81708 25.9672 4.59314C25.6226 4.3692 25.2204 4.25 24.8094 4.25H9.19062C8.77962 4.25 8.37744 4.3692 8.03281 4.59314C7.68817 4.81708 7.41588 5.13616 7.24891 5.51172L3.55937 13.8125H2.125C1.84321 13.8125 1.57296 13.9244 1.3737 14.1237C1.17444 14.323 1.0625 14.5932 1.0625 14.875C1.0625 15.1568 1.17444 15.427 1.3737 15.6263C1.57296 15.8256 1.84321 15.9375 2.125 15.9375H3.1875V26.5625C3.1875 27.1261 3.41138 27.6666 3.8099 28.0651C4.20841 28.4636 4.74891 28.6875 5.3125 28.6875H8.5C9.06359 28.6875 9.60409 28.4636 10.0026 28.0651C10.4011 27.6666 10.625 27.1261 10.625 26.5625V24.4375H23.375V26.5625C23.375 27.1261 23.5989 27.6666 23.9974 28.0651C24.3959 28.4636 24.9364 28.6875 25.5 28.6875H28.6875C29.2511 28.6875 29.7916 28.4636 30.1901 28.0651C30.5886 27.6666 30.8125 27.1261 30.8125 26.5625V15.9375H31.875C32.1568 15.9375 32.427 15.8256 32.6263 15.6263C32.8256 15.427 32.9375 15.1568 32.9375 14.875C32.9375 14.5932 32.8256 14.323 32.6263 14.1237C32.427 13.9244 32.1568 13.8125 31.875 13.8125ZM9.19062 6.375H24.8094L28.1151 13.8125H5.88492L9.19062 6.375ZM8.5 26.5625H5.3125V24.4375H8.5V26.5625ZM25.5 26.5625V24.4375H28.6875V26.5625H25.5ZM28.6875 22.3125H5.3125V15.9375H28.6875V22.3125ZM7.4375 19.125C7.4375 18.8432 7.54944 18.573 7.7487 18.3737C7.94796 18.1744 8.21821 18.0625 8.5 18.0625H10.625C10.9068 18.0625 11.177 18.1744 11.3763 18.3737C11.5756 18.573 11.6875 18.8432 11.6875 19.125C11.6875 19.4068 11.5756 19.677 11.3763 19.8763C11.177 20.0756 10.9068 20.1875 10.625 20.1875H8.5C8.21821 20.1875 7.94796 20.0756 7.7487 19.8763C7.54944 19.677 7.4375 19.4068 7.4375 19.125ZM22.3125 19.125C22.3125 18.8432 22.4244 18.573 22.6237 18.3737C22.823 18.1744 23.0932 18.0625 23.375 18.0625H25.5C25.7818 18.0625 26.052 18.1744 26.2513 18.3737C26.4506 18.573 26.5625 18.8432 26.5625 19.125C26.5625 19.4068 26.4506 19.677 26.2513 19.8763C26.052 20.0756 25.7818 20.1875 25.5 20.1875H23.375C23.0932 20.1875 22.823 20.0756 22.6237 19.8763C22.4244 19.677 22.3125 19.4068 22.3125 19.125Z" fill="white"/>
</svg>
