<svg width="32" height="15" viewBox="0 0 32 15" fill="none" xmlns="http://www.w3.org/2000/svg">
<path d="M18.8701 2.38328L6.97005 14.0708C6.77132 14.2663 6.50373 14.3758 6.22498 14.3758C5.94622 14.3758 5.67863 14.2663 5.4799 14.0708L0.379898 9.06242C0.280396 8.96457 0.20114 8.84809 0.146656 8.71961C0.0921716 8.59114 0.063526 8.45319 0.0623544 8.31365C0.0611827 8.1741 0.087508 8.03569 0.139827 7.90632C0.192147 7.77695 0.269435 7.65915 0.36728 7.55964C0.465125 7.46014 0.581611 7.38089 0.710086 7.3264C0.83856 7.27192 0.976508 7.24327 1.11605 7.2421C1.2556 7.24093 1.39401 7.26725 1.52338 7.31957C1.65275 7.37189 1.77055 7.44918 1.87005 7.54703L6.22498 11.8236L17.3812 0.866559C17.5824 0.668952 17.8537 0.559337 18.1357 0.561827C18.2753 0.563061 18.4133 0.591779 18.5418 0.646344C18.6703 0.700909 18.7868 0.780251 18.8847 0.87984C18.9825 0.979429 19.0598 1.09732 19.1121 1.22677C19.1644 1.35622 19.1906 1.4947 19.1894 1.63431C19.1882 1.77392 19.1594 1.91191 19.1049 2.04042C19.0503 2.16893 18.971 2.28543 18.8714 2.38328H18.8701ZM31.6333 0.87984C31.5355 0.780176 31.419 0.700768 31.2905 0.646155C31.162 0.591543 31.024 0.562798 30.8844 0.561565C30.7447 0.560331 30.6062 0.586633 30.4768 0.638966C30.3473 0.691299 30.2294 0.768638 30.1299 0.866559L18.9736 11.8236L16.4728 9.36656C16.2717 9.16913 16.0003 9.05968 15.7185 9.0623C15.4367 9.06491 15.1674 9.17938 14.97 9.3805C14.7726 9.58163 14.6631 9.85295 14.6658 10.1348C14.6684 10.4166 14.7828 10.6858 14.984 10.8833L18.2286 14.0708C18.4273 14.2663 18.6949 14.3758 18.9736 14.3758C19.2524 14.3758 19.52 14.2663 19.7187 14.0708L31.6187 2.38328C31.7185 2.28556 31.798 2.16914 31.8527 2.04068C31.9074 1.91221 31.9363 1.77422 31.9377 1.63459C31.939 1.49496 31.9128 1.35643 31.8606 1.22692C31.8084 1.09742 31.7312 0.979474 31.6333 0.87984Z" fill="white"/>
</svg>
