<svg width="15" height="15" viewBox="0 0 15 15" fill="none" xmlns="http://www.w3.org/2000/svg">
<path d="M6.2498 14.375C6.2498 14.5408 6.18395 14.6997 6.06674 14.8169C5.94954 14.9342 5.79057 15 5.62482 15H0.62498C0.459225 15 0.300259 14.9342 0.183052 14.8169C0.065846 14.6997 0 14.5408 0 14.375V0.625C0 0.45924 0.065846 0.300269 0.183052 0.183058C0.300259 0.0658481 0.459225 0 0.62498 0H5.62482C5.79057 0 5.94954 0.0658481 6.06674 0.183058C6.18395 0.300269 6.2498 0.45924 6.2498 0.625C6.2498 0.79076 6.18395 0.949731 6.06674 1.06694C5.94954 1.18415 5.79057 1.25 5.62482 1.25H1.24996V13.75H5.62482C5.79057 13.75 5.94954 13.8158 6.06674 13.9331C6.18395 14.0503 6.2498 14.2092 6.2498 14.375ZM14.8167 7.05781L11.6918 3.93281C11.5745 3.81554 11.4155 3.74965 11.2496 3.74965C11.0838 3.74965 10.9247 3.81554 10.8075 3.93281C10.6902 4.05009 10.6243 4.20915 10.6243 4.375C10.6243 4.54085 10.6902 4.69991 10.8075 4.81719L12.866 6.875H5.62482C5.45906 6.875 5.3001 6.94085 5.18289 7.05806C5.06568 7.17527 4.99984 7.33424 4.99984 7.5C4.99984 7.66576 5.06568 7.82473 5.18289 7.94194C5.3001 8.05915 5.45906 8.125 5.62482 8.125H12.866L10.8075 10.1828C10.6902 10.3001 10.6243 10.4591 10.6243 10.625C10.6243 10.7909 10.6902 10.9499 10.8075 11.0672C10.9247 11.1845 11.0838 11.2503 11.2496 11.2503C11.4155 11.2503 11.5745 11.1845 11.6918 11.0672L14.8167 7.94219C14.8748 7.88414 14.9209 7.81521 14.9524 7.73934C14.9838 7.66346 15 7.58213 15 7.5C15 7.41787 14.9838 7.33654 14.9524 7.26066C14.9209 7.18479 14.8748 7.11586 14.8167 7.05781Z" fill="black"/>
</svg>
