<svg width="34" height="34" viewBox="0 0 34 34" fill="none" xmlns="http://www.w3.org/2000/svg">
<path d="M17 0C13.6377 0 10.3509 0.997032 7.55531 2.86502C4.75968 4.733 2.58074 7.38804 1.29406 10.4944C0.00736583 13.6007 -0.329291 17.0189 0.326658 20.3165C0.982607 23.6142 2.6017 26.6433 4.97919 29.0208C7.35668 31.3983 10.3858 33.0174 13.6835 33.6733C16.9811 34.3293 20.3993 33.9926 23.5056 32.7059C26.612 31.4193 29.267 29.2403 31.135 26.4447C33.003 23.6491 34 20.3623 34 17C33.9952 12.4928 32.2026 8.17153 29.0156 4.98444C25.8285 1.79735 21.5072 0.0047597 17 0ZM17 31.3846C14.155 31.3846 11.3739 30.541 9.00834 28.9604C6.6428 27.3798 4.79909 25.1332 3.71036 22.5048C2.62162 19.8763 2.33675 16.984 2.89179 14.1937C3.44682 11.4034 4.81682 8.84026 6.82855 6.82854C8.84027 4.81682 11.4034 3.44681 14.1937 2.89178C16.984 2.33675 19.8763 2.62161 22.5048 3.71035C25.1332 4.79908 27.3798 6.6428 28.9604 9.00833C30.541 11.3739 31.3846 14.155 31.3846 17C31.3803 20.8137 29.8634 24.47 27.1667 27.1667C24.47 29.8634 20.8137 31.3803 17 31.3846ZM27.4615 17C27.4615 17.3468 27.3238 17.6794 27.0785 17.9247C26.8333 18.1699 26.5007 18.3077 26.1538 18.3077H17C16.6532 18.3077 16.3206 18.1699 16.0753 17.9247C15.8301 17.6794 15.6923 17.3468 15.6923 17V7.84615C15.6923 7.49933 15.8301 7.16671 16.0753 6.92147C16.3206 6.67623 16.6532 6.53846 17 6.53846C17.3468 6.53846 17.6794 6.67623 17.9247 6.92147C18.1699 7.16671 18.3077 7.49933 18.3077 7.84615V15.6923H26.1538C26.5007 15.6923 26.8333 15.8301 27.0785 16.0753C27.3238 16.3206 27.4615 16.6532 27.4615 17Z" fill="white"/>
</svg>
