<svg width="20" height="20" viewBox="0 0 20 20" fill="none" xmlns="http://www.w3.org/2000/svg">
<path d="M9.0625 9.375C9.0625 9.18958 9.11748 9.00832 9.2205 8.85415C9.32351 8.69998 9.46993 8.57982 9.64123 8.50886C9.81254 8.43791 10.001 8.41934 10.1829 8.45551C10.3648 8.49169 10.5318 8.58098 10.6629 8.71209C10.794 8.8432 10.8833 9.01025 10.9195 9.1921C10.9557 9.37396 10.9371 9.56246 10.8661 9.73377C10.7952 9.90507 10.675 10.0515 10.5208 10.1545C10.3667 10.2575 10.1854 10.3125 10 10.3125C9.75136 10.3125 9.5129 10.2137 9.33709 10.0379C9.16127 9.8621 9.0625 9.62364 9.0625 9.375ZM6.5625 10.3125C6.74792 10.3125 6.92918 10.2575 7.08335 10.1545C7.23752 10.0515 7.35768 9.90507 7.42864 9.73377C7.49959 9.56246 7.51816 9.37396 7.48199 9.1921C7.44581 9.01025 7.35652 8.8432 7.22541 8.71209C7.0943 8.58098 6.92725 8.49169 6.7454 8.45551C6.56354 8.41934 6.37504 8.43791 6.20373 8.50886C6.03243 8.57982 5.88601 8.69998 5.783 8.85415C5.67998 9.00832 5.625 9.18958 5.625 9.375C5.625 9.62364 5.72377 9.8621 5.89959 10.0379C6.0754 10.2137 6.31386 10.3125 6.5625 10.3125ZM13.4375 10.3125C13.6229 10.3125 13.8042 10.2575 13.9583 10.1545C14.1125 10.0515 14.2327 9.90507 14.3036 9.73377C14.3746 9.56246 14.3932 9.37396 14.357 9.1921C14.3208 9.01025 14.2315 8.8432 14.1004 8.71209C13.9693 8.58098 13.8023 8.49169 13.6204 8.45551C13.4385 8.41934 13.25 8.43791 13.0787 8.50886C12.9074 8.57982 12.761 8.69998 12.658 8.85415C12.555 9.00832 12.5 9.18958 12.5 9.375C12.5 9.62364 12.5988 9.8621 12.7746 10.0379C12.9504 10.2137 13.1889 10.3125 13.4375 10.3125ZM18.125 4.375V14.375C18.125 14.7065 17.9933 15.0245 17.7589 15.2589C17.5245 15.4933 17.2065 15.625 16.875 15.625H12.1539L11.0852 17.4953C10.9758 17.6866 10.8178 17.8455 10.6273 17.9561C10.4367 18.0667 10.2203 18.1249 10 18.1249C9.77969 18.1249 9.56329 18.0667 9.37272 17.9561C9.18216 17.8455 9.0242 17.6866 8.91484 17.4953L7.84609 15.625H3.125C2.79348 15.625 2.47554 15.4933 2.24112 15.2589C2.0067 15.0245 1.875 14.7065 1.875 14.375V4.375C1.875 4.04348 2.0067 3.72554 2.24112 3.49112C2.47554 3.2567 2.79348 3.125 3.125 3.125H16.875C17.2065 3.125 17.5245 3.2567 17.7589 3.49112C17.9933 3.72554 18.125 4.04348 18.125 4.375ZM16.875 4.375H3.125V14.375H8.20859C8.31925 14.374 8.42819 14.4024 8.52428 14.4573C8.62036 14.5122 8.70014 14.5917 8.75547 14.6875L10.0055 16.875L11.2555 14.6875C11.3108 14.5917 11.3906 14.5122 11.4867 14.4573C11.5827 14.4024 11.6917 14.374 11.8023 14.375H16.875V4.375Z" fill="black"/>
</svg>
