<svg width="32" height="26" viewBox="0 0 32 26" fill="none" xmlns="http://www.w3.org/2000/svg">
<path d="M30.5907 15.7345C30.1953 15.4303 29.7351 15.2214 29.2459 15.124C28.7566 15.0265 28.2515 15.0432 27.7698 15.1727L22.2129 16.4504C22.3422 15.9043 22.3462 15.3359 22.2246 14.788C22.103 14.2401 21.8589 13.7269 21.5108 13.2867C21.1626 12.8465 20.7193 12.4909 20.2141 12.2464C19.7089 12.0019 19.155 11.8749 18.5938 11.875H11.9452C11.3868 11.8736 10.8337 11.9829 10.3178 12.1965C9.80197 12.4101 9.33354 12.7238 8.93961 13.1195L5.93539 16.125H2.125C1.56141 16.125 1.02091 16.3489 0.622398 16.7474C0.223883 17.1459 0 17.6864 0 18.25L0 23.5625C0 24.1261 0.223883 24.6666 0.622398 25.0651C1.02091 25.4636 1.56141 25.6875 2.125 25.6875H15.9375C16.0244 25.6875 16.1109 25.6768 16.1952 25.6556L24.6952 23.5306C24.7493 23.5177 24.8022 23.4999 24.8532 23.4775L30.0156 21.2808L30.0741 21.2542C30.5702 21.0063 30.9951 20.6362 31.3086 20.1787C31.6222 19.7212 31.8141 19.1914 31.8663 18.6392C31.9185 18.087 31.8293 17.5306 31.6071 17.0225C31.3848 16.5143 31.0369 16.0711 30.596 15.7345H30.5907ZM2.125 18.25H5.3125V23.5625H2.125V18.25ZM29.143 19.3404L24.0962 21.4893L15.8047 23.5625H7.4375V17.6271L10.443 14.6229C10.6397 14.4247 10.8737 14.2676 11.1316 14.1607C11.3894 14.0537 11.666 13.9991 11.9452 14H18.5938C19.0164 14 19.4218 14.1679 19.7207 14.4668C20.0196 14.7657 20.1875 15.1711 20.1875 15.5938C20.1875 16.0164 20.0196 16.4218 19.7207 16.7207C19.4218 17.0196 19.0164 17.1875 18.5938 17.1875H14.875C14.5932 17.1875 14.323 17.2994 14.1237 17.4987C13.9244 17.698 13.8125 17.9682 13.8125 18.25C13.8125 18.5318 13.9244 18.802 14.1237 19.0013C14.323 19.2006 14.5932 19.3125 14.875 19.3125H19.125C19.205 19.3123 19.2847 19.3034 19.3627 19.2859L28.2612 17.2393L28.3023 17.2287C28.574 17.1533 28.8639 17.181 29.1164 17.3065C29.3688 17.432 29.5659 17.6464 29.6697 17.9085C29.7736 18.1706 29.7768 18.4618 29.6789 18.7262C29.5809 18.9905 29.3886 19.2093 29.1391 19.3404H29.143ZM21.7812 9.75C22.0438 9.7503 22.3058 9.72898 22.5648 9.68625C22.8562 10.5516 23.3892 11.3154 24.1009 11.8874C24.8125 12.4594 25.6731 12.8157 26.5808 12.9141C27.4886 13.0125 28.4055 12.849 29.2232 12.4428C30.041 12.0366 30.7253 11.4047 31.1953 10.6219C31.6653 9.83913 31.9014 8.93812 31.8755 8.02543C31.8497 7.11274 31.5631 6.22653 31.0495 5.47157C30.536 4.71662 29.817 4.12449 28.9776 3.7652C28.1383 3.4059 27.2135 3.29447 26.3128 3.44406C26.0323 2.61033 25.5272 1.87014 24.8531 1.30496C24.1791 0.739772 23.3621 0.371502 22.4923 0.240676C21.6224 0.109849 20.7333 0.221536 19.9228 0.563447C19.1123 0.905357 18.4118 1.46424 17.8985 2.17858C17.3852 2.89292 17.0788 3.73504 17.0132 4.61225C16.9477 5.48946 17.1253 6.36777 17.5267 7.15051C17.9281 7.93325 18.5377 8.59008 19.2883 9.04871C20.039 9.50735 20.9016 9.75001 21.7812 9.75ZM29.75 8.15625C29.75 8.68161 29.5942 9.19517 29.3023 9.63199C29.0105 10.0688 28.5956 10.4093 28.1103 10.6103C27.6249 10.8114 27.0908 10.864 26.5755 10.7615C26.0603 10.659 25.587 10.406 25.2155 10.0345C24.844 9.66302 24.591 9.18972 24.4885 8.67446C24.386 8.1592 24.4387 7.62511 24.6397 7.13975C24.8407 6.65438 25.1812 6.23953 25.618 5.94766C26.0548 5.65579 26.5684 5.5 27.0938 5.5C27.7982 5.5 28.4739 5.77986 28.972 6.278C29.4701 6.77614 29.75 7.45177 29.75 8.15625ZM21.7812 2.3125C22.3607 2.31279 22.9242 2.50256 23.3858 2.85289C23.8474 3.20321 24.1817 3.69486 24.3379 4.25289C23.7937 4.63578 23.3354 5.12804 22.9924 5.69818C22.6494 6.26831 22.4291 6.90377 22.3457 7.56391C22.1602 7.60397 21.971 7.62444 21.7812 7.625C21.0768 7.625 20.4011 7.34515 19.903 6.847C19.4049 6.34886 19.125 5.67323 19.125 4.96875C19.125 4.26427 19.4049 3.58864 19.903 3.0905C20.4011 2.59236 21.0768 2.3125 21.7812 2.3125Z" fill="white"/>
</svg>
