<svg width="19" height="16" viewBox="0 0 19 16" fill="none" xmlns="http://www.w3.org/2000/svg">
<path d="M18.125 6.4375H17.2812L15.1109 1.55469C15.0127 1.33377 14.8525 1.14608 14.6498 1.01435C14.4471 0.882617 14.2105 0.812503 13.9688 0.8125H4.78125C4.53948 0.812503 4.30291 0.882617 4.10018 1.01435C3.89745 1.14608 3.73728 1.33377 3.63906 1.55469L1.46875 6.4375H0.625C0.45924 6.4375 0.300268 6.50335 0.183058 6.62056C0.065848 6.73777 0 6.89674 0 7.0625C0 7.22826 0.065848 7.38723 0.183058 7.50444C0.300268 7.62165 0.45924 7.6875 0.625 7.6875H1.25V13.9375C1.25 14.269 1.3817 14.587 1.61612 14.8214C1.85054 15.0558 2.16848 15.1875 2.5 15.1875H4.375C4.70652 15.1875 5.02446 15.0558 5.25888 14.8214C5.4933 14.587 5.625 14.269 5.625 13.9375V12.6875H13.125V13.9375C13.125 14.269 13.2567 14.587 13.4911 14.8214C13.7255 15.0558 14.0435 15.1875 14.375 15.1875H16.25C16.5815 15.1875 16.8995 15.0558 17.1339 14.8214C17.3683 14.587 17.5 14.269 17.5 13.9375V7.6875H18.125C18.2908 7.6875 18.4497 7.62165 18.5669 7.50444C18.6842 7.38723 18.75 7.22826 18.75 7.0625C18.75 6.89674 18.6842 6.73777 18.5669 6.62056C18.4497 6.50335 18.2908 6.4375 18.125 6.4375ZM4.78125 2.0625H13.9688L15.9133 6.4375H2.83672L4.78125 2.0625ZM4.375 13.9375H2.5V12.6875H4.375V13.9375ZM14.375 13.9375V12.6875H16.25V13.9375H14.375ZM16.25 11.4375H2.5V7.6875H16.25V11.4375ZM3.75 9.5625C3.75 9.39674 3.81585 9.23777 3.93306 9.12056C4.05027 9.00335 4.20924 8.9375 4.375 8.9375H5.625C5.79076 8.9375 5.94973 9.00335 6.06694 9.12056C6.18415 9.23777 6.25 9.39674 6.25 9.5625C6.25 9.72826 6.18415 9.88723 6.06694 10.0044C5.94973 10.1217 5.79076 10.1875 5.625 10.1875H4.375C4.20924 10.1875 4.05027 10.1217 3.93306 10.0044C3.81585 9.88723 3.75 9.72826 3.75 9.5625ZM12.5 9.5625C12.5 9.39674 12.5658 9.23777 12.6831 9.12056C12.8003 9.00335 12.9592 8.9375 13.125 8.9375H14.375C14.5408 8.9375 14.6997 9.00335 14.8169 9.12056C14.9342 9.23777 15 9.39674 15 9.5625C15 9.72826 14.9342 9.88723 14.8169 10.0044C14.6997 10.1217 14.5408 10.1875 14.375 10.1875H13.125C12.9592 10.1875 12.8003 10.1217 12.6831 10.0044C12.5658 9.88723 12.5 9.72826 12.5 9.5625Z" fill="black"/>
</svg>
