<svg width="20" height="20" viewBox="0 0 20 20" fill="none" xmlns="http://www.w3.org/2000/svg">
<path d="M9.99998 6.24979C9.2583 6.24979 8.53327 6.46973 7.91659 6.88178C7.2999 7.29384 6.81926 7.87951 6.53543 8.56473C6.2516 9.24995 6.17734 10.004 6.32203 10.7314C6.46673 11.4588 6.82388 12.127 7.34832 12.6514C7.87277 13.1759 8.54096 13.533 9.26839 13.6777C9.99582 13.8224 10.7498 13.7482 11.435 13.4643C12.1203 13.1805 12.7059 12.6999 13.118 12.0832C13.53 11.4665 13.75 10.7415 13.75 9.99979C13.7489 9.00555 13.3535 8.05232 12.6505 7.34928C11.9474 6.64625 10.9942 6.25083 9.99998 6.24979ZM9.99998 12.4998C9.50552 12.4998 9.02217 12.3532 8.61105 12.0785C8.19993 11.8038 7.8795 11.4133 7.69028 10.9565C7.50106 10.4997 7.45155 9.99702 7.54801 9.51207C7.64447 9.02711 7.88258 8.58166 8.23221 8.23203C8.58184 7.88239 9.0273 7.64429 9.51225 7.54783C9.9972 7.45137 10.4999 7.50087 10.9567 7.69009C11.4135 7.87931 11.8039 8.19974 12.0786 8.61087C12.3534 9.02199 12.5 9.50534 12.5 9.99979C12.5 10.6628 12.2366 11.2987 11.7677 11.7676C11.2989 12.2364 10.663 12.4998 9.99998 12.4998ZM16.875 10.1685C16.8781 10.056 16.8781 9.94354 16.875 9.83104L18.0406 8.37479C18.1017 8.29833 18.144 8.20859 18.1641 8.11278C18.1842 8.01698 18.1815 7.9178 18.1562 7.82323C17.9651 7.10495 17.6793 6.4153 17.3062 5.77245C17.2574 5.68832 17.1896 5.61676 17.1082 5.56346C17.0268 5.51015 16.9341 5.47658 16.8375 5.46542L14.9844 5.25917C14.9073 5.17792 14.8291 5.09979 14.75 5.02479L14.5312 3.16698C14.52 3.07027 14.4863 2.97753 14.4328 2.89614C14.3794 2.81476 14.3077 2.74699 14.2234 2.69823C13.5803 2.32584 12.8907 2.04029 12.1726 1.84901C12.078 1.82385 11.9788 1.82128 11.883 1.8415C11.7872 1.86172 11.6975 1.90416 11.6211 1.96542L10.1687 3.12479C10.0562 3.12479 9.94373 3.12479 9.83123 3.12479L8.37498 1.96151C8.29852 1.90039 8.20877 1.85809 8.11297 1.838C8.01716 1.81792 7.91798 1.82062 7.82341 1.84589C7.10525 2.03731 6.41564 2.32314 5.77263 2.69589C5.6885 2.74473 5.61694 2.81255 5.56364 2.89392C5.51034 2.9753 5.47677 3.068 5.4656 3.16464L5.25935 5.02089C5.1781 5.09849 5.09998 5.17661 5.02498 5.25526L3.16716 5.46854C3.07045 5.47979 2.97771 5.51348 2.89633 5.56692C2.81494 5.62037 2.74717 5.69208 2.69841 5.77635C2.32603 6.41945 2.04047 7.10904 1.84919 7.82714C1.82403 7.92176 1.82146 8.02098 1.84168 8.11679C1.8619 8.21259 1.90435 8.30231 1.9656 8.3787L3.12497 9.83104C3.12497 9.94354 3.12497 10.056 3.12497 10.1685L1.96169 11.6248C1.90057 11.7013 1.85827 11.791 1.83819 11.8868C1.8181 11.9826 1.8208 12.0818 1.84607 12.1764C2.03715 12.8946 2.323 13.5843 2.69607 14.2271C2.74492 14.3113 2.81273 14.3828 2.89411 14.4361C2.97548 14.4894 3.06818 14.523 3.16482 14.5342L5.01794 14.7404C5.09555 14.8217 5.17367 14.8998 5.25232 14.9748L5.46872 16.8326C5.47998 16.9293 5.51367 17.0221 5.56711 17.1034C5.62055 17.1848 5.69227 17.2526 5.77654 17.3014C6.41963 17.6737 7.10923 17.9593 7.82732 18.1506C7.92195 18.1757 8.02116 18.1783 8.11697 18.1581C8.21277 18.1379 8.30249 18.0954 8.37888 18.0342L9.83123 16.8748C9.94373 16.8779 10.0562 16.8779 10.1687 16.8748L11.625 18.0404C11.7014 18.1015 11.7912 18.1438 11.887 18.1639C11.9828 18.184 12.082 18.1813 12.1765 18.156C12.8948 17.965 13.5845 17.6791 14.2273 17.306C14.3114 17.2572 14.383 17.1894 14.4363 17.108C14.4896 17.0266 14.5232 16.9339 14.5344 16.8373L14.7406 14.9842C14.8219 14.9071 14.9 14.829 14.975 14.7498L16.8328 14.531C16.9295 14.5198 17.0222 14.4861 17.1036 14.4327C17.185 14.3792 17.2528 14.3075 17.3015 14.2232C17.6739 13.5801 17.9595 12.8905 18.1508 12.1724C18.1759 12.0778 18.1785 11.9786 18.1583 11.8828C18.1381 11.787 18.0956 11.6973 18.0344 11.6209L16.875 10.1685ZM15.6172 9.66073C15.6304 9.88658 15.6304 10.113 15.6172 10.3389C15.6079 10.4935 15.6563 10.646 15.7531 10.767L16.8617 12.1521C16.7345 12.5564 16.5716 12.9486 16.375 13.324L14.6094 13.524C14.4556 13.5411 14.3136 13.6146 14.2109 13.7303C14.0605 13.8994 13.9004 14.0596 13.7312 14.2099C13.6155 14.3127 13.542 14.4546 13.525 14.6084L13.3289 16.3724C12.9535 16.5692 12.5613 16.7321 12.157 16.8592L10.7711 15.7506C10.6602 15.662 10.5224 15.6137 10.3804 15.6139H10.3429C10.1171 15.6271 9.89067 15.6271 9.66482 15.6139C9.5102 15.6045 9.35763 15.653 9.23669 15.7498L7.84763 16.8592C7.44336 16.732 7.05119 16.5691 6.67576 16.3724L6.47576 14.6092C6.45869 14.4554 6.3852 14.3134 6.26951 14.2107C6.10037 14.0603 5.9402 13.9002 5.78982 13.731C5.68711 13.6153 5.54514 13.5419 5.39138 13.5248L3.62732 13.3279C3.43059 12.9525 3.26771 12.5603 3.1406 12.156L4.24919 10.7701C4.34599 10.6492 4.39444 10.4966 4.38513 10.342C4.37185 10.1161 4.37185 9.8897 4.38513 9.66385C4.39444 9.50923 4.34599 9.35666 4.24919 9.23573L3.1406 7.84745C3.26781 7.44318 3.43069 7.05101 3.62732 6.67557L5.3906 6.47557C5.54436 6.45851 5.68633 6.38502 5.78904 6.26932C5.93942 6.10019 6.09959 5.94002 6.26872 5.78964C6.38488 5.68686 6.45867 5.54457 6.47576 5.39042L6.67185 3.62714C7.04724 3.43041 7.43942 3.26753 7.84373 3.14042L9.22966 4.24901C9.35059 4.34581 9.50317 4.39426 9.65779 4.38495C9.88363 4.37167 10.1101 4.37167 10.3359 4.38495C10.4905 4.39426 10.6431 4.34581 10.764 4.24901L12.1523 3.14042C12.5566 3.26762 12.9488 3.4305 13.3242 3.62714L13.5242 5.39042C13.5413 5.54418 13.6148 5.68615 13.7304 5.78885C13.8996 5.93924 14.0597 6.09941 14.2101 6.26854C14.3128 6.38423 14.4548 6.45772 14.6086 6.47479L16.3726 6.67089C16.5694 7.04628 16.7322 7.43845 16.8594 7.84276L15.7508 9.2287C15.653 9.35065 15.6045 9.50479 15.6148 9.66073H15.6172Z" fill="black"/>
</svg>
