<svg width="79" height="78" viewBox="0 0 79 78" fill="none" xmlns="http://www.w3.org/2000/svg">
<path d="M70 40C70 45.9334 68.2405 51.7336 64.9441 56.6671C61.6476 61.6006 56.9623 65.4457 51.4805 67.7164C45.9987 69.987 39.9667 70.5811 34.1473 69.4235C28.3279 68.266 22.9824 65.4088 18.7868 61.2132C14.5912 57.0176 11.734 51.6721 10.5765 45.8527C9.4189 40.0333 10.013 34.0013 12.2836 28.5195C14.5543 23.0377 18.3994 18.3524 23.3329 15.0559C28.2664 11.7595 34.0666 10 40 10C47.9565 10 55.5871 13.1607 61.2132 18.7868C66.8393 24.4129 70 32.0435 70 40Z" fill="#D2F6B0"/>
<path opacity="0.2" d="M58 40C58 43.5601 56.9443 47.0402 54.9665 50.0003C52.9886 52.9604 50.1774 55.2675 46.8883 56.6298C43.5992 57.9922 39.98 58.3487 36.4884 57.6541C32.9967 56.9596 29.7894 55.2453 27.2721 52.7279C24.7547 50.2106 23.0404 47.0033 22.3459 43.5116C21.6513 40.02 22.0078 36.4008 23.3702 33.1117C24.7326 29.8226 27.0397 27.0114 29.9997 25.0335C32.9598 23.0557 36.4399 22 40 22C44.7739 22 49.3523 23.8964 52.7279 27.2721C56.1036 30.6477 58 35.2261 58 40Z" fill="#6FE200"/>
<path d="M48.5613 34.4387C48.7007 34.5781 48.8114 34.7435 48.8868 34.9256C48.9623 35.1077 49.0012 35.3029 49.0012 35.5C49.0012 35.6971 48.9623 35.8923 48.8868 36.0744C48.8114 36.2565 48.7007 36.4219 48.5613 36.5613L38.0613 47.0613C37.9219 47.2007 37.7565 47.3114 37.5744 47.3868C37.3923 47.4623 37.1971 47.5012 37 47.5012C36.8029 47.5012 36.6077 47.4623 36.4256 47.3868C36.2435 47.3114 36.0781 47.2007 35.9388 47.0613L31.4388 42.5613C31.1573 42.2798 30.9992 41.898 30.9992 41.5C30.9992 41.102 31.1573 40.7202 31.4388 40.4387C31.7202 40.1573 32.102 39.9992 32.5 39.9992C32.8981 39.9992 33.2798 40.1573 33.5613 40.4387L37 43.8794L46.4388 34.4387C46.5781 34.2993 46.7435 34.1886 46.9256 34.1132C47.1077 34.0377 47.3029 33.9988 47.5 33.9988C47.6971 33.9988 47.8923 34.0377 48.0744 34.1132C48.2565 34.1886 48.4219 34.2993 48.5613 34.4387ZM59.5 40C59.5 43.8567 58.3564 47.6269 56.2137 50.8336C54.071 54.0404 51.0255 56.5397 47.4623 58.0156C43.8992 59.4916 39.9784 59.8777 36.1957 59.1253C32.4131 58.3729 28.9386 56.5157 26.2114 53.7886C23.4843 51.0615 21.6271 47.5869 20.8747 43.8043C20.1223 40.0216 20.5084 36.1008 21.9844 32.5377C23.4603 28.9745 25.9596 25.929 29.1664 23.7863C32.3731 21.6437 36.1433 20.5 40 20.5C45.1701 20.5055 50.1268 22.5617 53.7826 26.2174C57.4383 29.8732 59.4945 34.83 59.5 40ZM56.5 40C56.5 36.7366 55.5323 33.5465 53.7193 30.8331C51.9062 28.1197 49.3293 26.0048 46.3143 24.756C43.2993 23.5071 39.9817 23.1804 36.781 23.817C33.5803 24.4537 30.6403 26.0252 28.3327 28.3327C26.0252 30.6403 24.4537 33.5803 23.8171 36.781C23.1804 39.9817 23.5072 43.2993 24.756 46.3143C26.0048 49.3293 28.1197 51.9062 30.8331 53.7192C33.5465 55.5323 36.7366 56.5 40 56.5C44.3746 56.495 48.5685 54.7551 51.6618 51.6618C54.7551 48.5685 56.495 44.3745 56.5 40Z" fill="#3D7C00"/>
</svg>
