<svg width="16" height="16" viewBox="0 0 16 16" fill="none" xmlns="http://www.w3.org/2000/svg">
<path d="M14.4325 13.2502C13.4806 11.6046 12.0137 10.4246 10.3019 9.86524C11.1486 9.36115 11.8065 8.59303 12.1745 7.67886C12.5425 6.76468 12.6002 5.75499 12.3388 4.80483C12.0774 3.85468 11.5113 3.01661 10.7275 2.41931C9.94366 1.82202 8.98544 1.49854 7.99999 1.49854C7.01453 1.49854 6.05632 1.82202 5.2725 2.41931C4.48869 3.01661 3.92261 3.85468 3.6612 4.80483C3.39979 5.75499 3.4575 6.76468 3.82548 7.67886C4.19345 8.59303 4.85134 9.36115 5.69811 9.86524C3.98624 10.424 2.51936 11.604 1.56749 13.2502C1.53258 13.3072 1.50943 13.3705 1.49939 13.4365C1.48936 13.5025 1.49265 13.5699 1.50906 13.6346C1.52548 13.6993 1.55469 13.7601 1.59498 13.8133C1.63527 13.8666 1.68581 13.9112 1.74363 13.9446C1.80144 13.978 1.86536 13.9995 1.93162 14.0078C1.99787 14.0161 2.06511 14.011 2.12937 13.9929C2.19364 13.9748 2.25362 13.944 2.30579 13.9023C2.35796 13.8606 2.40125 13.8089 2.43311 13.7502C3.61061 11.7152 5.69186 10.5002 7.99999 10.5002C10.3081 10.5002 12.3894 11.7152 13.5669 13.7502C13.5987 13.8089 13.642 13.8606 13.6942 13.9023C13.7463 13.944 13.8063 13.9748 13.8706 13.9929C13.9349 14.011 14.0021 14.0161 14.0684 14.0078C14.1346 13.9995 14.1985 13.978 14.2563 13.9446C14.3142 13.9112 14.3647 13.8666 14.405 13.8133C14.4453 13.7601 14.4745 13.6993 14.4909 13.6346C14.5073 13.5699 14.5106 13.5025 14.5006 13.4365C14.4905 13.3705 14.4674 13.3072 14.4325 13.2502ZM4.49999 6.00024C4.49999 5.308 4.70526 4.63131 5.08984 4.05574C5.47443 3.48017 6.02105 3.03156 6.66059 2.76666C7.30014 2.50175 8.00387 2.43244 8.6828 2.56749C9.36174 2.70254 9.98538 3.03588 10.4749 3.52536C10.9643 4.01485 11.2977 4.63849 11.4327 5.31742C11.5678 5.99635 11.4985 6.70009 11.2336 7.33963C10.9687 7.97917 10.5201 8.52579 9.94448 8.91038C9.36891 9.29496 8.69222 9.50024 7.99999 9.50024C7.07203 9.49924 6.18237 9.13018 5.52621 8.47401C4.87005 7.81785 4.50098 6.92819 4.49999 6.00024Z" fill="black"/>
</svg>
